<svg width="224" height="240" viewBox="0 0 224 240" fill="none" xmlns="http://www.w3.org/2000/svg">
<path d="M26.3515 1.03893C24.4217 1.88898 24.3082 6.13927 24.3082 68.7603C24.3082 119.48 24.6487 135.915 25.6704 136.765C27.6002 138.371 190.157 138.371 192.086 136.765C193.108 135.915 193.449 119.669 193.449 69.327C193.449 10.2951 193.222 2.83348 191.632 1.51117C190.043 0.188858 181.075 -4.57764e-05 109.105 -4.57764e-05C56.32 0.0944061 27.6002 0.377762 26.3515 1.03893ZM56.6605 9.53951C82.6559 11.4285 105.586 16.34 123.522 23.8016C133.966 28.1464 144.069 33.719 147.474 36.8358C149.744 38.9138 149.631 38.9138 144.069 36.5525C125.906 28.9964 94.3482 25.3128 65.1743 27.2963C56.774 27.9575 49.0549 28.6186 48.1467 28.8075C46.8981 29.0909 44.7412 26.4462 40.5411 19.4569C37.2491 14.0732 34.5247 9.44505 34.5247 9.06725C34.5247 8.21719 40.8817 8.4061 56.6605 9.53951ZM129.993 37.5915C141.004 39.7638 152.015 43.7308 158.939 47.9811C163.139 50.5312 170.745 58.654 170.745 60.543C170.745 61.0153 168.361 60.0708 165.41 58.4651C152.582 51.7591 130.106 48.9256 103.543 50.8146C87.7642 51.8536 64.3797 54.876 58.1362 56.6705C54.6172 57.6151 55.0713 58.4651 52.1198 46.3754C51.2117 42.5974 50.0765 39.1027 49.736 38.6304C48.0332 36.2691 66.0824 35.0413 95.2563 35.4191C115.349 35.7024 122.16 36.0802 129.993 37.5915ZM153.491 59.9763C162.231 61.6765 168.361 64.3211 174.037 68.4769C178.237 71.5938 183.118 78.7721 181.756 79.9055C181.416 80.1888 179.599 79.7166 177.67 78.961C167.68 74.6162 142.706 73.2939 120.117 76.033C107.403 77.5442 86.5155 81.6056 69.4879 86.0448C63.2445 87.6505 58.0227 88.7839 57.7957 88.595C57.5687 88.4061 57.2281 83.4002 57.1146 77.4498L56.6605 66.5879L67.4446 64.51C80.045 62.0543 96.1644 59.7874 108.878 58.5596C121.025 57.4262 144.636 58.1818 153.491 59.9763ZM174.718 83.2113C177.102 83.778 180.848 85.667 182.891 87.3671C186.07 90.0117 186.638 91.1452 186.638 95.2066C186.638 99.9291 181.643 109.752 176.421 115.23C174.264 117.591 174.264 117.591 176.421 112.586C180.281 104.179 179.032 100.024 172.221 98.6068C166.886 97.4734 149.972 99.079 136.69 101.913C115.008 106.541 79.2504 117.308 53.3685 126.942C47.5792 129.114 46.8981 129.209 47.5792 127.792C50.9847 121.086 53.9361 112.774 55.1848 107.013L56.547 100.212L66.1959 97.19C85.8344 91.3341 120.457 84.2502 140.436 82.1723C150.312 81.1334 168.475 81.7001 174.718 83.2113Z" fill="#737373"/>
<path d="M187.092 158.583C180.848 160.944 174.605 167.272 173.015 172.845C168.248 189.563 191.065 203.447 210.136 195.419C228.525 187.579 227.617 165.761 208.773 158.583C202.87 156.316 193.108 156.316 187.092 158.583ZM204.914 165.856C213.428 169.445 213.768 183.707 205.595 188.241C201.735 190.319 194.243 190.319 190.384 188.241C184.708 185.124 182.664 176.812 186.183 170.673C189.589 164.817 197.649 162.739 204.914 165.856Z" fill="#737373"/>
<path d="M1.60474 177.096V196.458H7.28059H12.9564V189.846V183.235H19.1999C31.4597 183.235 36.9085 179.646 37.7032 171.051C38.2707 164.628 37.0221 162.172 31.9138 159.622C28.8488 158.016 26.1244 157.733 14.9997 157.733H1.60474V177.096ZM25.6703 166.895C26.8055 167.745 27.7137 169.351 27.7137 170.578C27.7137 174.073 24.7622 175.679 18.5188 175.679H12.9564V170.484V165.289H18.2917C21.5837 165.289 24.3081 165.856 25.6703 166.895Z" fill="#737373"/>
<path d="M54.3902 159.528C48.3738 161.795 41.6763 168.123 40.6546 172.373C38.2707 182.857 42.6979 191.358 52.9144 195.986C76.526 206.659 101.273 184.463 86.1749 166.045C80.1585 158.772 64.8337 155.561 54.3902 159.528ZM71.9853 166.706C81.4072 170.767 80.9531 186.824 71.3042 189.846C69.715 190.413 66.423 190.791 63.8121 190.791C51.8928 190.791 47.0116 175.679 56.6605 168.312C61.0877 164.911 66.423 164.345 71.9853 166.706Z" fill="#737373"/>
<path d="M94.1211 176.812L94.8022 195.986L100.365 196.269L106.04 196.552V189.469C106.04 182.668 106.154 182.29 108.651 182.29C110.468 182.29 112.851 184.274 117.279 189.374L123.522 196.458H130.674C134.647 196.458 137.825 196.175 137.825 195.891C137.825 195.608 134.647 192.208 130.901 188.335L123.976 181.251L127.041 178.512C131.014 175.018 132.149 168.028 129.425 163.589C126.36 158.678 122.727 157.733 107.176 157.733H93.44L94.1211 176.812ZM119.322 167.745C121.025 170.012 121.025 170.484 119.549 172.751C118.187 174.829 117.052 175.207 111.943 175.49L106.04 175.773V170.578V165.289H111.716C116.484 165.289 117.619 165.667 119.322 167.745Z" fill="#737373"/>
<path d="M133.284 161.983V166.234H140.663H148.042V181.346V196.458H153.718H159.393V181.346V166.234H166.772H174.151V161.983V157.733H153.718H133.284V161.983Z" fill="#737373"/>
<path d="M7.62114 206.753C5.23729 207.981 3.53453 209.87 2.6264 212.326C0.696606 217.993 2.73991 220.826 11.8213 224.51C17.7242 226.966 19.1999 228.005 19.1999 229.705C19.1999 231.499 18.5188 231.877 14.9998 232.16C12.7294 232.349 9.09687 231.783 6.82653 231.027L2.73991 229.61L1.03716 233.01C-1.00615 237.072 -0.665599 237.45 7.9617 239.055C15.9079 240.566 21.5837 239.528 26.2379 235.655C28.9623 233.388 29.984 231.688 29.984 229.327C29.8705 224.982 27.6001 222.904 19.4269 219.598C11.7078 216.481 10.1185 214.12 14.4322 212.42C16.4755 211.664 18.0647 211.759 21.4702 212.892C23.8541 213.742 25.8974 214.309 26.0109 214.215C26.1244 214.026 27.1461 212.609 28.1677 210.909C29.984 207.981 29.8705 207.792 27.4866 206.753C26.1244 206.186 21.9243 205.431 18.1782 205.242C12.6159 204.958 10.5726 205.242 7.62114 206.753Z" fill="#737373"/>
<path d="M77.6612 205.998C67.6717 208.548 62.3364 215.065 63.131 223.849C63.6986 230.555 67.1041 234.711 74.1422 237.355C80.4991 239.717 90.1481 239.811 96.1645 237.733L100.365 236.222V228.099V219.976L95.5969 220.26L90.7156 220.543L90.3751 226.588L90.0345 232.538L84.3587 232.161C74.5962 231.31 69.942 225.454 73.6881 218.748C76.299 214.215 81.9748 212.137 89.694 212.893C95.5969 213.459 95.8239 213.365 97.5267 210.626C99.1159 208.076 99.1159 207.792 97.0726 206.848C93.6671 205.431 82.2019 204.864 77.6612 205.998Z" fill="#737373"/>
<path d="M103.77 217.048C103.77 226.966 104.111 229.61 105.813 232.349C111.716 241.322 130.447 241.7 138.279 233.011C140.436 230.555 140.663 229.044 140.663 217.898V205.431L135.895 205.148L131.014 204.864V215.254C131.014 220.921 130.56 226.682 129.879 228.005C127.836 232.538 120.117 233.577 115.803 229.894C114.327 228.76 113.987 226.116 113.987 216.671V204.959H108.878H103.77V217.048Z" fill="#737373"/>
<path d="M143.728 222.149L144.069 239.433L148.95 239.717L153.718 240V233.388C153.718 227.249 153.945 226.682 155.988 226.682C157.577 226.682 160.188 228.855 164.048 233.294L169.837 239.906H175.967C179.372 239.906 182.097 239.622 182.097 239.15C182.097 238.772 179.259 235.561 175.853 231.972C170.632 226.494 169.837 225.266 171.313 224.604C173.697 223.471 176.421 218.749 176.421 215.821C176.421 211.854 173.243 207.792 169.042 206.281C166.545 205.431 161.096 204.959 154.285 204.959H143.501L143.728 222.149ZM164.842 212.704C165.637 213.365 166.204 214.97 166.204 216.293C166.204 219.787 164.161 221.015 158.599 221.015H153.718V216.293V211.57H158.599C161.323 211.57 164.048 212.043 164.842 212.704Z" fill="#737373"/>
<path d="M191.178 206.47C182.664 209.587 178.578 214.781 178.578 222.621C178.578 243.872 216.265 245.856 221.147 224.888C223.985 212.137 206.162 201.086 191.178 206.47ZM206.843 213.931C211.157 216.954 212.519 222.243 210.135 226.777C208.092 230.933 205.822 232.444 200.6 233.011C195.038 233.577 190.611 230.838 188.908 225.927C185.616 215.443 197.535 207.414 206.843 213.931Z" fill="#737373"/>
<path d="M34.5247 222.432V238.961H48.1467H61.7687V235.183V231.405H53.255H44.7412V228.571V225.738H51.5522H58.3632V221.96V218.182H51.5522C45.0817 218.182 44.7412 218.087 44.7412 215.82C44.7412 213.554 44.9682 213.459 52.6874 213.459H60.6336V209.681V205.903H47.5791H34.5247V222.432Z" fill="#737373"/>
</svg>
