<svg width="64" height="45" viewBox="0 0 64 45" fill="none" xmlns="http://www.w3.org/2000/svg">
<path d="M40 1.07415L62 20.3213C63.3906 21.5402 63.3906 23.5102 62 24.7292L40.164 43.8155C38.7734 45.031 36.5156 45.031 35.1249 43.8155C33.7304 42.5966 33.7304 40.6265 35.1249 39.4075L50.7269 25.7702L4.5159 25.7736C2.5471 25.7736 0.9534 24.3771 0.9534 22.6563C0.9534 20.939 2.5472 19.5425 4.5159 19.5425H51.0469L34.9449 5.48211C33.5543 4.26321 33.5543 2.29654 34.9449 1.07756C35.6129 0.490288 36.523 0.159084 37.4722 0.159084C38.4214 0.15567 39.3321 0.486856 40 1.07415Z" fill="white"/>
</svg>
